HIERARCHY
ROOT hip
{
	OFFSET 0.000000 0.000000 0.000000 
	CHANNELS 6 Xposition Yposition Zposition Xrotation Zrotation Yrotation
	JOINT abdomen
	{
		OFFSET 0.000000 3.402643 0.000000 
		CHANNELS 3 Xrotation Zrotation Yrotation
		JOINT chest
		{
			OFFSET 0.000000 8.438565 -0.680529 
			CHANNELS 3 Xrotation Zrotation Yrotation
			JOINT neck
			{
				OFFSET 0.000000 10.207942 -0.272212 
				CHANNELS 3 Xrotation Zrotation Yrotation
				JOINT head
				{
					OFFSET 0.000000 3.130431 0.000000 
					CHANNELS 3 Xrotation Zrotation Yrotation
					End Site
					{
						OFFSET 0.000000 3.130435 0.000000 
					}
				}
			}
			JOINT lCollar
			{
				OFFSET 3.470700 6.669187 -0.816635 
				CHANNELS 3 Yrotation Zrotation Xrotation
				JOINT lShldr
				{
					OFFSET 3.198488 0.000000 0.000000 
					CHANNELS 3 Zrotation Yrotation Xrotation
					JOINT lForeArm
					{
						OFFSET 10.139888 0.000000 0.000000 
						CHANNELS 3 Yrotation Zrotation Xrotation
						JOINT lHand
						{
							OFFSET 8.370511 0.000000 0.000000 
							CHANNELS 3 Zrotation Yrotation Xrotation
							End Site
							{
								OFFSET 4.083176 0.000000 0.000000 
							}
						}
					}
				}
			}
			JOINT rCollar
			{
				OFFSET -3.470700 6.669187 -0.816635 
				CHANNELS 3 Yrotation Zrotation Xrotation
				JOINT rShldr
				{
					OFFSET -3.198488 0.000000 0.000000 
					CHANNELS 3 Zrotation Yrotation Xrotation
					JOINT rForeArm
					{
						OFFSET -10.139888 0.000000 0.000000 
						CHANNELS 3 Yrotation Zrotation Xrotation
						JOINT rHand
						{
							OFFSET -8.370511 0.000000 0.000000 
							CHANNELS 3 Zrotation Yrotation Xrotation
							End Site
							{
								OFFSET -4.083176 0.000000 0.000000 
							}
						}
					}
				}
			}
		}
	}
	JOINT lThigh
	{
		OFFSET 5.308129 -1.633274 1.361059 
		CHANNELS 3 Xrotation Zrotation Yrotation
		JOINT lShin
		{
			OFFSET -2.041588 -20.007561 0.000000 
			CHANNELS 3 Xrotation Zrotation Yrotation
			JOINT lFoot
			{
				OFFSET 0.000000 -19.190928 -1.224953 
				CHANNELS 3 Xrotation Yrotation Zrotation
				End Site
				{
					OFFSET 0.000000 -2.449906 4.627600 
				}
			}
		}
	}
	JOINT rThigh
	{
		OFFSET -5.308129 -1.633274 1.361059 
		CHANNELS 3 Xrotation Zrotation Yrotation
		JOINT rShin
		{
			OFFSET 2.041588 -20.007561 0.000000 
			CHANNELS 3 Xrotation Zrotation Yrotation
			JOINT rFoot
			{
				OFFSET 0.000000 -19.190928 -1.224953 
				CHANNELS 3 Xrotation Yrotation Zrotation
				End Site
				{
					OFFSET 0.000000 -2.449906 4.627600 
				}
			}
		}
	}
}
MOTION
Frames: 18
Frame Time: 0.033333
0.019041 45.469830 -0.020272 2.696228 1.492487 90.451370 0.000000 0.000000 0.000000 18.823698 -3.864388 4.845713 30.297291 -2.105242 -0.296689 -27.257006 4.150986 2.649514 -7.129376 14.512038 25.000000 -91.353333 -0.092797 -0.860264 -47.970600 2.287213 74.759918 -10.995671 -2.535818 -57.953583 -3.767140 -5.564337 24.301577 65.086586 11.659946 67.253174 33.718655 -41.715633 4.851899 21.548965 -19.068712 -79.070763 3.260744 -6.458076 15.174229 13.870255 19.960211 4.571508 39.575245 -48.931396 23.453909 3.809881 0.750762 1.289471 20.178156 -12.266877 -2.025857 17.771427 4.021721 14.449598 
-0.013926 45.478329 0.010865 2.480548 0.458554 90.371506 0.000000 0.000000 0.000000 17.702679 -3.628740 4.965561 30.221689 -2.216413 -0.304446 -27.248077 4.349904 2.878725 -6.168025 15.135797 25.000000 -92.172142 -0.750418 -0.428563 -46.679806 2.956142 73.409149 -9.451479 -1.699785 -58.483517 -3.570768 -5.573955 24.324392 65.364365 11.529552 67.447060 33.538078 -41.367840 4.011137 22.029858 -19.765951 -78.991058 3.006624 -5.044574 15.586748 12.975733 17.630400 4.044728 36.931736 -46.029823 20.486769 3.226611 -1.012879 0.769713 19.090816 -9.241115 -1.379400 18.871540 -1.991966 19.731857 
-0.075713 45.500401 0.063051 2.089997 -0.692898 90.238274 0.000000 0.000000 0.000000 16.531237 -3.248906 5.110418 30.060667 -2.424109 -0.318819 -27.426388 4.720473 3.098389 -5.173027 15.730033 25.000000 -92.816811 -1.213424 -0.085142 -45.591404 3.368401 71.887009 -7.713820 -1.271369 -58.926727 -3.294127 -5.576487 24.353617 65.583763 11.405575 67.601036 33.390591 -40.879299 2.842283 21.770363 -20.409773 -78.849998 2.800345 -2.876731 16.237461 12.236943 14.344497 3.292120 33.942638 -40.131481 15.359019 2.518589 -3.025598 0.191138 18.028620 -5.469717 -0.595207 20.466837 -9.895833 25.755363 
-0.146446 45.540226 0.119732 1.709727 -1.688701 90.134888 0.000000 0.000000 0.000000 15.596482 -2.887847 5.238753 29.822779 -2.667150 -0.337405 -27.773083 5.228646 3.191619 -4.379785 16.076130 25.000000 -93.019386 -1.419291 0.022893 -44.926922 3.380339 70.444603 -6.407026 -1.223700 -59.220268 -3.017362 -5.549607 24.385941 65.705673 11.295451 67.690315 33.341110 -40.243275 1.443822 20.934973 -20.809650 -78.682930 2.767686 -0.527242 16.965673 11.861883 10.719472 2.467867 32.092491 -32.582813 4.699393 1.960367 -5.150138 -0.417904 17.190762 -1.474347 0.218458 22.610449 -18.842169 31.443325 
-0.204636 45.607513 0.201477 1.456326 -2.372281 89.812401 0.000000 0.000000 0.000000 15.026929 -2.707037 5.308641 29.522469 -3.085823 -0.360224 -28.244392 5.896128 3.469236 -3.621381 15.959123 25.000000 -92.515442 -1.237237 -0.251821 -44.838455 3.024639 69.049126 -5.551395 -1.511093 -59.364746 -2.517077 -5.441947 24.458113 65.880013 11.295666 67.794289 33.107616 -39.851513 0.595527 19.921362 -20.992189 -78.537735 3.289366 2.128050 17.827984 11.504238 6.519992 1.508897 31.138054 -26.516684 -15.288711 2.029531 -7.308303 -1.094083 16.054037 2.398937 0.985254 26.201517 -27.822729 38.516365 
-0.257971 45.642906 0.237419 1.349361 -2.880062 89.648582 0.000000 0.000000 0.000000 14.644412 -2.607874 5.353781 29.247768 -3.358716 -0.385160 -28.460381 6.373673 3.615649 -3.411391 15.554777 25.000000 -91.713280 -0.824927 -0.683104 -45.371693 2.490999 67.841499 -5.097996 -1.398836 -59.482773 -2.410483 -5.530014 24.462729 66.075150 11.267868 67.917877 33.232235 -39.403278 0.172046 18.403433 -21.097574 -78.376724 3.570646 4.537647 18.647161 12.087299 2.820601 0.635455 29.052896 -20.803753 -28.363817 2.284531 -10.096426 -1.959142 15.687420 7.349680 2.010160 27.662228 -32.901482 45.478031 
-0.308417 45.667084 0.240903 1.447518 -3.163055 89.695091 0.000000 0.000000 0.000000 14.508580 -2.694580 5.338004 29.044130 -3.414215 -0.381914 -28.534475 6.547847 3.580768 -3.705200 14.995721 25.000000 -90.770966 -0.503344 -1.192182 -45.924206 1.900879 66.892830 -4.760876 -1.126378 -59.564278 -2.616589 -5.729860 24.427841 66.354759 11.293613 68.076103 33.327873 -38.900234 -0.457053 17.136724 -20.912575 -78.311752 3.881608 6.098216 19.192423 12.759580 0.273430 0.006838 27.186323 -10.954014 -31.152260 2.439094 -12.405153 -2.696408 15.839050 11.023494 2.817054 28.757196 -36.324158 52.044144 
-0.345887 45.695179 0.231676 1.711528 -3.123609 89.847725 0.000000 0.000000 0.000000 14.717298 -2.956537 5.268249 28.923801 -3.333107 -0.379905 -28.519968 6.494183 3.437322 -4.306261 14.310550 25.000000 -89.731026 -0.392053 -1.768499 -46.259666 1.331119 66.208687 -4.475324 -0.807689 -59.613056 -2.956881 -5.921237 24.371199 66.669525 11.389654 68.242271 33.235336 -38.421547 -1.399599 16.229534 -20.343359 -78.374626 4.436703 6.721910 19.416920 13.118012 -1.015116 -0.296527 26.223654 -0.662952 -30.345394 2.692539 -13.565391 -3.077736 15.809714 12.341475 3.097776 30.298330 -38.543999 57.620064 
-0.352627 45.745304 0.245056 1.994282 -2.625364 89.869202 0.000000 0.000000 0.000000 15.387555 -3.305138 5.155242 28.932766 -3.308592 -0.376019 -28.495041 6.433539 3.409325 -4.837272 13.479087 25.000000 -88.572418 -0.519357 -2.411718 -46.146641 0.844193 65.746590 -4.189451 -0.498658 -59.632660 -3.091097 -5.951890 24.348619 66.933907 11.521955 68.381470 32.853664 -38.041664 -2.580018 15.492088 -19.386772 -78.553909 5.296277 6.684879 19.401953 13.201468 -1.290381 -0.346676 25.581635 3.842761 -34.789627 3.329530 -13.369299 -3.030483 15.342980 11.414440 2.864609 31.674957 -39.234245 59.986744 
-0.347814 45.843750 0.231074 2.657212 -1.541311 90.348167 0.000000 0.000000 0.000000 16.780807 -4.021000 4.930770 29.045078 -2.837087 -0.345308 -28.513554 5.938127 3.102342 -5.978202 12.834854 25.000000 -87.703812 -1.032980 -2.887843 -45.667450 0.682626 64.894020 -3.808589 0.030895 -59.698135 -3.633500 -5.582001 24.309120 66.839905 11.653059 68.300911 32.379200 -37.630558 -4.305825 15.389170 -18.208302 -78.802017 6.369295 5.386657 18.906818 12.664897 -0.419421 -0.132011 26.774467 7.860123 -31.797361 4.188133 -12.194478 -2.672979 15.198686 8.432908 2.190906 30.288439 -38.518566 51.493465 
-0.346761 45.930229 0.228089 3.222872 -0.663012 90.616859 0.000000 0.000000 0.000000 17.902643 -4.647450 4.730526 29.320759 -2.551166 -0.327785 -28.286505 5.539467 2.858536 -6.816948 12.588034 25.000000 -87.424866 -1.566555 -3.042718 -44.987118 0.872615 64.123291 -3.669149 0.508086 -59.747990 -3.952797 -5.277826 24.298817 66.890327 11.802105 68.295410 31.746931 -37.300743 -6.172236 15.601917 -17.045904 -79.048309 7.159428 3.640058 18.273867 11.829437 1.494141 0.359519 27.388285 6.748769 -30.237793 4.872919 -10.673807 -2.196112 14.978385 5.252103 1.486055 26.453684 -35.011208 39.681305 
-0.369856 45.978569 0.240781 3.681682 -0.272873 90.665993 0.000000 0.000000 0.000000 18.476864 -5.188426 4.576939 29.650499 -2.444770 -0.314631 -27.979614 5.230560 2.662426 -7.278337 12.854533 25.000000 -87.646439 -1.968858 -2.926083 -44.421253 1.081169 63.490120 -3.629251 1.018896 -59.811325 -4.104033 -5.189579 24.285488 67.200478 11.985660 68.440689 31.057634 -37.019108 -7.897842 15.991090 -15.954521 -79.273300 7.311039 1.582041 17.573366 10.858572 4.297561 1.059433 27.964327 2.649509 -26.700411 5.085447 -8.766443 -1.596229 14.599866 1.639081 0.688782 22.219381 -27.278599 29.270308 
-0.425103 45.975555 0.271009 4.013817 -0.487084 90.473557 0.000000 0.000000 0.000000 18.364351 -5.664950 4.480119 29.945902 -2.521423 -0.323665 -27.746750 4.977636 2.538035 -7.346575 13.589341 25.000000 -88.200439 -2.114079 -2.614740 -44.208393 1.041304 63.039497 -3.604582 1.626672 -59.874550 -4.123476 -5.431382 24.266922 67.837349 12.217608 68.782288 30.398754 -36.773895 -9.306954 16.375984 -14.941770 -79.460663 6.549711 -0.662781 16.845846 10.046735 7.821212 1.915109 28.505709 -3.388821 -18.663591 4.702549 -6.518274 -0.882776 14.183123 -2.548214 -0.294791 19.399374 -15.089782 22.532568 
-0.475338 45.938869 0.321237 4.170562 -1.003196 89.916924 0.000000 0.000000 0.000000 17.825151 -5.989406 4.444808 30.260485 -2.908297 -0.357358 -27.784273 4.793721 2.550220 -6.741226 14.386046 25.000000 -88.710045 -1.993088 -2.332555 -44.236965 0.676876 63.048897 -3.878731 2.178738 -59.889065 -3.643803 -5.800431 24.294573 68.664543 12.333901 69.251884 29.549683 -36.716961 -10.544580 16.541637 -13.908770 -79.628349 5.194773 -2.675359 16.249348 9.766427 11.181702 2.736279 28.659534 -16.831059 -7.426268 3.533711 -3.757048 -0.047641 14.649982 -7.089334 -1.289509 18.640654 0.111563 20.823200 
-0.497765 45.897453 0.365540 4.288064 -1.207549 89.294044 0.000000 0.000000 0.000000 17.617481 -6.238571 4.399534 30.483149 -3.403537 -0.391763 -27.920015 4.604216 2.496251 -6.081810 14.703586 25.000000 -88.924332 -1.778994 -2.215722 -44.242123 0.533451 62.755901 -3.928359 2.371604 -59.886929 -3.083777 -6.230658 24.334534 69.443100 12.457216 69.681564 28.917898 -36.778309 -11.257356 16.485863 -13.275709 -79.733246 3.963118 -4.595989 15.709127 10.035415 14.485624 3.479061 29.928345 -27.366058 5.018903 2.673769 -2.067463 0.457532 15.296692 -9.857083 -1.855006 18.690117 7.584011 18.152300 
-0.504466 45.843124 0.406341 4.346654 -1.197718 88.609955 0.000000 0.000000 0.000000 17.614553 -6.434375 4.358437 30.623116 -3.956045 -0.439214 -27.994534 4.536855 2.478595 -5.468025 14.702741 25.000000 -88.938431 -1.505920 -2.215725 -44.231838 0.586975 62.351463 -4.152120 2.192990 -59.851841 -2.496710 -6.736325 24.383963 70.200264 12.618649 70.103752 28.484482 -36.794910 -11.826566 16.369867 -12.801476 -79.794434 3.085077 -6.051099 15.283926 10.284016 16.892565 4.075676 32.453888 -36.229572 13.468621 2.186629 -0.877930 0.842393 15.811644 -11.707055 -2.283958 19.301252 12.131567 15.956251 
-0.497384 45.783550 0.450040 4.297460 -0.944603 87.848793 0.000000 0.000000 0.000000 17.864508 -6.546469 4.320591 30.661760 -4.565289 -0.477055 -27.992249 4.662880 2.590831 -4.964304 14.303326 25.000000 -88.664589 -1.179178 -2.362098 -44.200218 0.848099 61.920452 -4.625324 1.766087 -59.789146 -1.855511 -7.314600 24.439743 70.905533 12.845362 70.475082 28.186447 -36.677128 -12.424744 16.282946 -12.335849 -79.863457 2.743813 -6.811532 15.074828 10.325154 18.242149 4.398112 36.314041 -42.995033 18.705053 2.141941 -0.009380 1.105957 16.084455 -12.858749 -2.544725 20.080334 14.321008 14.673980 
-0.473657 45.741905 0.509377 3.974672 -0.321491 86.950272 0.000000 0.000000 0.000000 18.509281 -6.429782 4.307355 30.593018 -5.284396 -0.530603 -27.979939 5.088759 2.883950 -4.576058 13.160749 25.000000 -87.841949 -0.795486 -2.819988 -44.130493 1.315768 61.452667 -5.245256 1.341352 -59.707272 -1.069403 -7.856974 24.542337 71.486923 13.211014 70.738754 27.943491 -36.320042 -13.247066 16.331398 -11.669250 -79.949265 3.114967 -6.669512 15.121994 10.563994 18.732691 4.503771 39.840435 -47.055550 21.813719 2.692299 0.546610 1.262017 16.011629 -13.000167 -2.594954 19.928724 12.227465 13.637792 
